<?xml version="1.0" standalone="no"?>
<!DOCTYPE svg PUBLIC "-//W3C//DTD SVG 20010904//EN"
 "http://www.w3.org/TR/2001/REC-SVG-20010904/DTD/svg10.dtd">
<svg version="1.0" xmlns="http://www.w3.org/2000/svg"
 width="1024.000000pt" height="1024.000000pt" viewBox="0 0 1024.000000 1024.000000"
 preserveAspectRatio="xMidYMid meet">
<metadata>
Created by potrace 1.14, written by Peter Selinger 2001-2017
</metadata>
<g transform="translate(0.000000,1024.000000) scale(0.100000,-0.100000)"
fill="#000000" stroke="none">
<path d="M1012 9012 c-108 -24 -192 -93 -245 -201 l-32 -66 -2 -179 c-2 -185
6 -255 37 -316 33 -65 98 -128 168 -162 l67 -33 580 -5 580 -5 47 -230 c26
-126 49 -241 51 -255 3 -14 16 -79 30 -145 14 -66 28 -131 31 -145 2 -14 21
-106 41 -205 20 -99 55 -268 77 -375 21 -107 41 -206 44 -220 2 -14 11 -54 19
-90 11 -53 75 -364 91 -445 2 -11 19 -96 38 -190 85 -415 169 -829 217 -1060
28 -137 53 -261 55 -275 3 -13 12 -56 20 -95 8 -38 17 -86 20 -105 3 -19 8
-38 10 -41 2 -3 6 -21 9 -39 3 -19 22 -113 41 -209 20 -97 38 -187 41 -201 2
-13 11 -56 20 -95 16 -76 31 -145 38 -185 2 -14 32 -158 65 -320 33 -162 60
-295 60 -296 0 -1 -25 -18 -57 -39 -73 -49 -189 -165 -237 -237 -84 -127 -129
-294 -129 -468 1 -129 12 -194 54 -310 76 -209 289 -418 504 -494 313 -111
643 -40 879 189 128 124 199 244 240 406 20 79 24 115 22 224 -3 140 -18 216
-64 320 -33 76 -86 159 -131 208 -20 21 -39 44 -43 50 -5 9 377 12 1580 11
873 -1 1588 -2 1590 -3 1 0 -25 -33 -58 -72 -119 -142 -182 -316 -183 -509 -2
-144 7 -205 45 -310 65 -180 197 -339 372 -447 200 -123 444 -151 690 -79 211
62 420 250 520 468 93 200 96 484 9 690 -14 35 -31 70 -38 78 -6 8 -17 28 -25
44 -8 16 -42 56 -75 90 -86 87 -127 119 -224 171 -66 36 -65 14 -9 245 52 217
56 267 28 349 -37 110 -100 184 -200 233 l-45 23 -2095 5 -2095 5 -22 110
c-12 61 -24 126 -27 145 -3 19 -14 79 -24 133 l-19 97 2261 1 c1244 0 2275 3
2291 5 85 13 180 87 225 173 16 33 73 251 94 362 2 13 18 83 35 154 16 72 32
141 35 155 8 40 94 422 127 565 17 72 33 139 35 150 2 11 6 31 9 45 3 14 7 34
9 45 3 11 25 108 50 215 24 107 56 249 71 315 35 154 34 152 39 173 2 9 14 61
26 116 12 54 23 106 25 115 9 37 39 165 70 306 19 83 57 251 86 375 28 124 52
245 53 270 9 156 -113 313 -268 346 -49 11 -631 13 -3071 14 l-3011 0 -38 193
c-21 105 -44 224 -52 262 -8 39 -17 82 -19 98 -26 143 -52 219 -93 269 -60 74
-138 127 -212 143 -19 5 -403 9 -853 9 -630 1 -832 -2 -875 -12z"/>
</g>
</svg>
